<svg viewBox="0 0 850 250" xmlns="http://www.w3.org/2000/svg">
  <defs>
    <style>
      @import url('https://fonts.googleapis.com/css2?family=Dancing+Script:wght@600&amp;family=Inter:wght@600;700&amp;family=Nunito:wght@800&amp;family=Varela+Round&amp;display=swap');
      
      .script-text { font-family: 'Dancing Script', cursive; font-size: 34px; fill: #48689A; letter-spacing: 0.5px; }
      .sm-text-yellow { font-family: 'Inter', sans-serif; font-size: 10px; font-weight: bold; fill: #F4A631; }
      .tm-text-blue { font-family: 'Inter', sans-serif; font-size: 12px; font-weight: bold; fill: #48689A; }
      
      .title-jot { font-family: 'Varela Round', 'Nunito', sans-serif; font-weight: 800; font-size: 115px; fill: #2B78BE; letter-spacing: -1px; }
      .title-jive { font-family: 'Varela Round', 'Nunito', sans-serif; font-weight: 800; font-size: 115px; fill: #EFB321; letter-spacing: -1px; }
      
      .bottom-text { font-family: 'Inter', sans-serif; font-size: 21px; font-weight: 700; fill: #27568A; letter-spacing: 0px; }
    </style>

    <linearGradient id="shieldGrad" x1="0%" y1="0%" x2="0%" y2="100%">
      <stop offset="0%" stop-color="#F9C340" />
      <stop offset="100%" stop-color="#F2A021" />
    </linearGradient>

    <linearGradient id="tabletGrad" x1="0%" y1="0%" x2="100%" y2="100%">
      <stop offset="0%" stop-color="#64ACDE" />
      <stop offset="100%" stop-color="#3585C7" />
    </linearGradient>

    <!-- Drop shadow for the tablet over the shield -->
    <filter id="drop-shadow" x="-20%" y="-20%" width="140%" height="140%">
      <feDropShadow dx="0" dy="8" stdDeviation="6" flood-opacity="0.25" />
    </filter>
  </defs>

  <!-- LEFT ICON GROUP -->
  <!-- 1. The Shield (In the back) -->
  <path d="M 150 20 L 260 50 L 260 145 C 260 200 205 235 150 245 C 75 230 40 190 40 145 L 40 50 Z" 
        fill="none" 
        stroke="url(#shieldGrad)" 
        stroke-width="16" 
        stroke-linecap="round" 
        stroke-linejoin="round" />

  <!-- 2. The Tablet (Shifted left to overlap the shield outline) -->
  <g transform="translate(15, 30) rotate(-4) scale(1.15)" filter="url(#drop-shadow)">
    <!-- Tablet Shell -->
    <rect x="25" y="10" width="105" height="150" rx="12" fill="url(#tabletGrad)" />
    <!-- Glowing light inner stroke -->
    <rect x="26" y="11" width="103" height="148" rx="11" fill="none" stroke="#A7D4F2" stroke-width="2" />
    <!-- Screen -->
    <rect x="33" y="22" width="89" height="120" rx="4" fill="#F8FBFF" />
    <!-- Screen content lines (text approximation) -->
    <line x1="42" y1="40" x2="110" y2="40" stroke="#C4DDF2" stroke-width="3" stroke-linecap="round" />
    <line x1="42" y1="55" x2="95" y2="55" stroke="#C4DDF2" stroke-width="3" stroke-linecap="round" />
    <line x1="42" y1="70" x2="110" y2="70" stroke="#E1EAF4" stroke-width="3" stroke-linecap="round" />
  </g>

  <!-- 3. The Hand and Pencil (overlapping tablet and right side of shield) -->
  <g transform="translate(100, 115) rotate(-25) scale(1.2)" filter="url(#drop-shadow)">
    <!-- Pencil -->
    <!-- Wood tip -->
    <polygon points="12,-5 25,-2 -5,10" fill="#EBC39A" />
    <!-- Lead tip -->
    <polygon points="-5,10 0,6 3,11" fill="#F4B030" />
    <!-- Yellow body -->
    <rect x="15" y="-12" width="70" height="14" rx="2" fill="#F4B030" transform="rotate(7 15 -12)" />
    
    <!-- Cartoon Hand -->
    <!-- Base palm -->
    <path d="M 25 -5 C 25 -25 55 -30 65 -5 Q 70 10 55 20 C 45 28 25 30 25 -5 Z" fill="#FAD1A4" />
    <!-- Thumb crossing pencil -->
    <path d="M 28 5 C 10 3 15 -10 35 -15 Q 45 -15 50 -5 Q 45 10 28 5 Z" fill="#F4C28B" />
  </g>

  <!-- RIGHT TEXT GROUP -->
  <g transform="translate(290, 48)">
    <!-- Top Script Tagline -->
    <text x="-5" y="0" class="script-text">Read. Write. Hear. Speak. Learn!</text>
    <text x="365" y="-15" class="sm-text-yellow">SM</text>
    
    <!-- Main Logo Text -->
    <text x="-10" y="110" class="title-jot">Jot</text>
    <text x="165" y="110" class="title-jive">Jive</text>
    <text x="390" y="40" class="tm-text-blue">TM</text>
    
    <!-- Bottom Tagline -->
    <text x="-5" y="160" class="bottom-text">Multilingual Learning Re-Imagined</text>
    <text x="395" y="145" class="sm-text-yellow">SM</text>
  </g>
</svg>
