<svg xmlns="http://www.w3.org/2000/svg" xmlns:xlink="http://www.w3.org/1999/xlink" aria-hidden="true" role="img" class="iconify iconify--logos" width="31.88" height="32" preserveAspectRatio="xMidYMid meet" viewBox="0 0 256 257"><defs><linearGradient id="IconifyId1813088fe1fbc01fb466" x1="-.828%" x2="57.636%" y1="7.652%" y2="78.411%"><stop offset="0%" stop-color="#41D1FF"></stop><stop offset="100%" stop-color="#BD34FE"></stop></linearGradient><linearGradient id="IconifyId1813088fe1fbc01fb467" x1="43.376%" x2="50.316%" y1="2.242%" y2="89.03%"><stop offset="0%" stop-color="#FFEA83"></stop><stop offset="8.333%" stop-color="#FFDD35"></stop><stop offset="100%" stop-color="#FFA800"></stop></linearGradient></defs><path fill="url(#IconifyId1813088fe1fbc01fb466)" d="M255.153 37.938L134.897 252.976c-2.483 4.44-8.862 4.466-11.382.048L.875 37.958c-2.746-4.814 1.371-10.646 6.827-9.67l120.385 21.517a6.537 6.537 0 007.991-5.917l5.87-123.58c.337-7.11 8.676-10.013 12.624-4.496l100.744 152.678c3.698 5.617.95 13.088-5.163 13.088H255.153z"></path><path fill="url(#IconifyId1813088fe1fbc01fb467)" d="M185.432.063L96.44 17.501a3.268 3.268 0 00-2.634 3.014l-5.474 92.456a3.268 3.268 0 003.997 3.378l24.777-5.718c2.318-.535 4.413 1.507 3.936 3.838l-7.361 36.047c-.495 2.426 1.782 4.5 4.151 3.78l15.906-4.828c2.372-.72 4.831 1.036 4.831 3.526v30.1c0 2.328 2.257 3.946 4.436 3.148l30.655-10.915c2.326-.828 3.396-3.588 2.09-5.789l-22.834-39.369c-1.259-2.173.111-4.93 2.659-5.171l25.214-2.256c2.574-.23 3.988-3.044 2.443-5.118l-37.98-51.072c-1.584-2.13-.147-5.145 2.552-5.145h.01z"></path></svg>
